<svg id="Group_8186" data-name="Group 8186" xmlns="http://www.w3.org/2000/svg" xmlns:xlink="http://www.w3.org/1999/xlink" width="79.19" height="87.428" viewBox="0 0 79.19 87.428">
  <defs>
    <clipPath id="clip-path">
      <rect id="Rectangle_3339" data-name="Rectangle 3339" width="79.19" height="87.428" fill="none"/>
    </clipPath>
  </defs>
  <g id="Group_8185" data-name="Group 8185" clip-path="url(#clip-path)">
    <path id="Path_15991" data-name="Path 15991" d="M8.721,35.693a1.19,1.19,0,0,1-1.158.915H3.971A3.98,3.98,0,0,0,0,40.579v6.27a3.984,3.984,0,0,0,3.971,3.975H7.563a1.186,1.186,0,0,1,1.158.911,35.561,35.561,0,0,0,4.58,11.05,1.18,1.18,0,0,1-.172,1.461l-2.544,2.546a3.986,3.986,0,0,0,0,5.614l4.436,4.436a3.987,3.987,0,0,0,5.617,0L23.179,74.3a1.183,1.183,0,0,1,1.461-.17,35.676,35.676,0,0,0,11.053,4.582,1.18,1.18,0,0,1,.911,1.154v4.78a2.792,2.792,0,0,0,2.785,2.785h3.137a1.186,1.186,0,0,0,1.188-1.186v-27.4a15.531,15.531,0,0,1,0-30.265V1.191A1.19,1.19,0,0,0,42.526,0H39.389A2.793,2.793,0,0,0,36.6,2.785V7.566a1.186,1.186,0,0,1-.911,1.157A35.6,35.6,0,0,0,24.64,13.3a1.182,1.182,0,0,1-1.461-.17l-2.542-2.542a3.98,3.98,0,0,0-5.617,0l-4.436,4.432a3.99,3.99,0,0,0,0,5.618l2.544,2.542a1.18,1.18,0,0,1,.172,1.461,35.606,35.606,0,0,0-4.58,11.05" fill="#fdcb37"/>
    <path id="Path_15992" data-name="Path 15992" d="M215.206,15.336h-5.543a2.623,2.623,0,0,0-2.613,2.615v5.541a2.623,2.623,0,0,0,2.613,2.615h5.543a2.623,2.623,0,0,0,2.613-2.615V17.951a2.623,2.623,0,0,0-2.613-2.615" transform="translate(-155.735 -11.535)" fill="#258768"/>
    <path id="Path_15993" data-name="Path 15993" d="M207.05,107.848a2.623,2.623,0,0,0,2.613,2.615h5.543a2.622,2.622,0,0,0,2.613-2.615v-5.542a2.623,2.623,0,0,0-2.613-2.615h-5.543a2.623,2.623,0,0,0-2.613,2.615Z" transform="translate(-155.735 -74.984)" fill="#258768"/>
    <path id="Path_15994" data-name="Path 15994" d="M278.946,75.954h5.015a2.887,2.887,0,0,0,2.878-2.878V68.06a2.887,2.887,0,0,0-2.878-2.878h-5.015a2.885,2.885,0,0,0-2.876,2.878v5.015a2.886,2.886,0,0,0,2.876,2.878m.291-7.339a.262.262,0,0,1,.264-.263h3.905a.264.264,0,0,1,.265.263v3.906a.264.264,0,0,1-.265.263H279.5a.262.262,0,0,1-.264-.263Z" transform="translate(-207.649 -49.027)" fill="#258768"/>
    <path id="Path_15995" data-name="Path 15995" d="M276.07,255.849a2.885,2.885,0,0,0,2.876,2.877h5.015a2.886,2.886,0,0,0,2.878-2.877v-5.015a2.887,2.887,0,0,0-2.878-2.878h-5.015a2.885,2.885,0,0,0-2.876,2.878Zm3.167-4.461a.263.263,0,0,1,.264-.263h3.905a.264.264,0,0,1,.265.263v3.906a.264.264,0,0,1-.265.263H279.5a.263.263,0,0,1-.264-.263Z" transform="translate(-207.649 -186.503)" fill="#258768"/>
    <path id="Path_15996" data-name="Path 15996" d="M207.05,206.266a2.623,2.623,0,0,0,2.613,2.615h5.543a2.623,2.623,0,0,0,2.613-2.615v-5.541a2.622,2.622,0,0,0-2.613-2.615h-5.543a2.623,2.623,0,0,0-2.613,2.615Z" transform="translate(-155.735 -149.01)" fill="#258768"/>
    <path id="Path_15997" data-name="Path 15997" d="M207.05,290.622a2.622,2.622,0,0,0,2.613,2.614h5.543a2.622,2.622,0,0,0,2.613-2.614v-5.541a2.62,2.62,0,0,0-2.613-2.615h-5.543a2.62,2.62,0,0,0-2.613,2.615Z" transform="translate(-155.735 -212.46)" fill="#258768"/>
    <path id="Path_15998" data-name="Path 15998" d="M276.07,162.806a2.622,2.622,0,0,0,2.613,2.615h5.544a2.622,2.622,0,0,0,2.613-2.615v-5.541a2.622,2.622,0,0,0-2.613-2.615h-5.544a2.622,2.622,0,0,0-2.613,2.615Z" transform="translate(-207.649 -116.322)" fill="#258768"/>
  </g>
</svg>
