<svg id="Group_8189" data-name="Group 8189" xmlns="http://www.w3.org/2000/svg" xmlns:xlink="http://www.w3.org/1999/xlink" width="88.653" height="88" viewBox="0 0 88.653 88">
  <defs>
    <clipPath id="clip-path">
      <rect id="Rectangle_3341" data-name="Rectangle 3341" width="88.653" height="88" fill="#fdcb37"/>
    </clipPath>
  </defs>
  <g id="Group_8189-2" data-name="Group 8189" clip-path="url(#clip-path)">
    <path id="Path_16007" data-name="Path 16007" d="M85.222,23.9H52.04V81.945a6.037,6.037,0,0,0,6.036,6.038l28.474.112a29.278,29.278,0,0,1,19.979-53.646V10.436a9.732,9.732,0,0,0-9.305-9.8,9.612,9.612,0,0,0-9.888,9.595V21.78A2.113,2.113,0,0,1,85.222,23.9" transform="translate(-38.699 -0.471)" fill="#fdcb37"/>
    <path id="Path_16008" data-name="Path 16008" d="M44.405,9.761A13.791,13.791,0,0,1,48.449,0H9.6A9.608,9.608,0,0,0,0,9.6v9.6H44.405Z" fill="#fdcb37"/>
    <path id="Path_16009" data-name="Path 16009" d="M150.39,172.894a25.05,25.05,0,1,0,25.05-25.05,25.049,25.049,0,0,0-25.05,25.05m46.481,0a21.433,21.433,0,1,1-21.432-21.432,21.455,21.455,0,0,1,21.432,21.432" transform="translate(-111.837 -109.944)" fill="#258768"/>
    <path id="Exclusion_1" data-name="Exclusion 1" d="M17.416,34.831A17.42,17.42,0,0,1,10.637,1.369,17.42,17.42,0,0,1,24.195,33.462,17.3,17.3,0,0,1,17.416,34.831ZM13.731,16.81a.823.823,0,0,0-.582,1.4l6.567,6.567a.823.823,0,0,0,.582.24.822.822,0,0,0,.579-1.4l-5.165-5.165h1.3a4.115,4.115,0,0,0,4.02-3.283h.9a.821.821,0,0,0,0-1.642h-.9a4.029,4.029,0,0,0-.758-1.641H21.94a.821.821,0,1,0,0-1.641H13.731a.821.821,0,1,0,0,1.641h3.284a2.464,2.464,0,0,1,2.311,1.641H13.731a.821.821,0,0,0,0,1.642h5.595a2.464,2.464,0,0,1-2.311,1.641Z" transform="translate(45.474 45.474)" fill="#258768"/>
  </g>
</svg>
