<svg id="Group_8188" data-name="Group 8188" xmlns="http://www.w3.org/2000/svg" xmlns:xlink="http://www.w3.org/1999/xlink" width="81.07" height="87.428" viewBox="0 0 81.07 87.428">
  <defs>
    <clipPath id="clip-path">
      <rect id="Rectangle_3340" data-name="Rectangle 3340" width="81.07" height="87.428" fill="none"/>
    </clipPath>
  </defs>
  <g id="Group_8187" data-name="Group 8187" clip-path="url(#clip-path)">
    <path id="Path_15999" data-name="Path 15999" d="M88.118,37.559l1.8-1.8a17.544,17.544,0,0,0,5.594,2.318v2.541A1.189,1.189,0,0,0,96.7,41.812h5.288a1.19,1.19,0,0,0,1.192-1.191V38.081a17.587,17.587,0,0,0,5.595-2.318l1.8,1.8a1.189,1.189,0,0,0,1.684,0L116,33.817a1.192,1.192,0,0,0,0-1.685l-1.8-1.8a17.6,17.6,0,0,0,2.318-5.594h2.539a1.19,1.19,0,0,0,1.193-1.19v-5.29a1.189,1.189,0,0,0-1.193-1.191h-2.539a17.556,17.556,0,0,0-2.318-5.594l1.8-1.8a1.193,1.193,0,0,0,0-1.687l-3.742-3.739a1.19,1.19,0,0,0-1.684,0l-1.8,1.8a17.544,17.544,0,0,0-5.595-2.319V1.191A1.189,1.189,0,0,0,101.988,0H96.7a1.188,1.188,0,0,0-1.191,1.191V3.731A17.5,17.5,0,0,0,89.914,6.05l-1.8-1.8a1.193,1.193,0,0,0-1.686,0L82.69,7.993a1.2,1.2,0,0,0,0,1.687l1.8,1.8a17.525,17.525,0,0,0-2.32,5.594H79.629a1.189,1.189,0,0,0-1.193,1.191v5.29a1.19,1.19,0,0,0,1.193,1.19h2.539a17.566,17.566,0,0,0,2.32,5.594l-1.8,1.8a1.194,1.194,0,0,0,0,1.685l3.742,3.741a1.192,1.192,0,0,0,1.686,0M99.343,7.918A12.988,12.988,0,1,1,86.357,20.9,12.987,12.987,0,0,1,99.343,7.918" transform="translate(-58.725)" fill="#258768"/>
    <path id="Path_16000" data-name="Path 16000" d="M211.458,264.878l-.05-.172h-.219a12.017,12.017,0,0,1-14.764,0h-.539s-.019.063-.047.178c-.021-.061-.043-.118-.059-.178a11.79,11.79,0,0,0-9.227,11.537v9.371h5.217v-7.071a1.751,1.751,0,0,1,1.533-1.762,1.692,1.692,0,0,1,1.859,1.689v7.143h16.97v-7.071a1.747,1.747,0,0,1,1.526-1.762,1.7,1.7,0,0,1,1.863,1.689v7.143h5.222v-9.371a11.792,11.792,0,0,0-9.229-11.537,1.466,1.466,0,0,1-.056.172" transform="translate(-139.673 -198.186)" fill="#fdcb37"/>
    <path id="Path_16001" data-name="Path 16001" d="M223.7,203.3a7.918,7.918,0,1,0,7.918-7.921A7.919,7.919,0,0,0,223.7,203.3" transform="translate(-167.483 -146.277)" fill="#fdcb37"/>
    <path id="Path_16002" data-name="Path 16002" d="M5.216,278.543a1.753,1.753,0,0,1,1.533-1.762,1.694,1.694,0,0,1,1.86,1.689v7.143h16.97v-7.071a1.746,1.746,0,0,1,1.527-1.762,1.7,1.7,0,0,1,1.863,1.689v7.143h5.219v-9.371a11.79,11.79,0,0,0-9.227-11.537c-.014.057-.038.114-.057.172l-.05-.172h-.219a12.021,12.021,0,0,1-14.767,0H9.332s-.02.063-.048.178c-.018-.061-.041-.118-.057-.178A11.791,11.791,0,0,0,0,276.243v9.371H5.216Z" transform="translate(0 -198.186)" fill="#fdcb37"/>
    <path id="Path_16003" data-name="Path 16003" d="M45.055,211.214a7.92,7.92,0,1,0-7.921-7.918,7.919,7.919,0,0,0,7.921,7.918" transform="translate(-27.802 -146.277)" fill="#fdcb37"/>
    <path id="Path_16004" data-name="Path 16004" d="M120.193,195.127h19.653a.783.783,0,0,0,.785-.786v-2.547a.783.783,0,0,0-.785-.784h-6.824a.786.786,0,0,1-.786-.786v-7.451h-4.118v7.451a.785.785,0,0,1-.786.786h-7.139a.784.784,0,0,0-.785.784v2.547a.785.785,0,0,0,.785.786" transform="translate(-89.401 -136.843)" fill="#258768"/>
    <path id="Path_16005" data-name="Path 16005" d="M265.474,99.38l-2.154,2.464a11.938,11.938,0,0,1,3.636,2.1l1.62-1.851a11.871,11.871,0,0,0,2.936-7.817V80.2a5.2,5.2,0,0,0-5.2-5.2h-5.13a.6.6,0,0,0-.6.6v2.927a.6.6,0,0,0,.6.6h5.13a1.084,1.084,0,0,1,1.083,1.083V94.274a7.742,7.742,0,0,1-1.919,5.106" transform="translate(-195.098 -56.148)" fill="#258768"/>
    <path id="Path_16006" data-name="Path 16006" d="M25.167,79.112H30.3a.594.594,0,0,0,.6-.6V75.59a.6.6,0,0,0-.6-.6H25.167a5.2,5.2,0,0,0-5.2,5.2V94.274a11.86,11.86,0,0,0,2.936,7.817l1.6,1.828a11.932,11.932,0,0,1,3.646-2.087L26,99.38a7.74,7.74,0,0,1-1.92-5.106V80.2a1.084,1.084,0,0,1,1.083-1.083" transform="translate(-14.949 -56.148)" fill="#258768"/>
  </g>
</svg>
