<svg id="Group_8184" data-name="Group 8184" xmlns="http://www.w3.org/2000/svg" xmlns:xlink="http://www.w3.org/1999/xlink" width="81.312" height="84.428" viewBox="0 0 81.312 84.428">
  <defs>
    <clipPath id="clip-path">
      <rect id="Rectangle_3338" data-name="Rectangle 3338" width="81.312" height="84.428" fill="none"/>
    </clipPath>
  </defs>
  <g id="Group_8183" data-name="Group 8183" clip-path="url(#clip-path)">
    <path id="Path_15986" data-name="Path 15986" d="M9.311,15.246A7.623,7.623,0,1,0,1.688,7.623a7.623,7.623,0,0,0,7.623,7.623" transform="translate(-1.293)" fill="#fdcb37"/>
    <path id="Path_15987" data-name="Path 15987" d="M4.194,110.2a4.855,4.855,0,0,0,1.09.687L21.25,118.2l1.289,19.99a4.854,4.854,0,1,0,9.689-.625l-1.476-22.886a4.868,4.868,0,0,0-2.824-4.1l-14.556-6.664V92.3l5.42,4.236a4.228,4.228,0,0,0,3.968.68l11.757-3.951a4.247,4.247,0,1,0-2.707-8.052l-9.588,3.222-8.887-6.949a6.069,6.069,0,0,0-12.1.678v22.83a6.066,6.066,0,0,0,2.958,5.21" transform="translate(-0.947 -58.305)" fill="#fdcb37"/>
    <path id="Path_15988" data-name="Path 15988" d="M173.693,48.515h1.2V52.8H149.229a1.4,1.4,0,0,0-1.4,1.4v6.088a1.4,1.4,0,0,0,1.4,1.4h2.594a3.136,3.136,0,0,0,.281.336l14.871,15.274L152.1,92.569a3.034,3.034,0,0,0,4.35,4.232l14.755-15.159L185.962,96.8a3.034,3.034,0,0,0,4.35-4.232l-14.87-15.276,14.87-15.274a3.2,3.2,0,0,0,.281-.336h2.594a1.4,1.4,0,0,0,1.395-1.4V54.2a1.4,1.4,0,0,0-1.395-1.4H178.4V48.515h1.2a1.945,1.945,0,0,0,1.941-1.941V21.467a1.945,1.945,0,0,0-1.941-1.941h-5.9a1.946,1.946,0,0,0-1.942,1.941V46.574a1.946,1.946,0,0,0,1.942,1.941m-2.484,24.428L160.246,61.683H182.17Z" transform="translate(-113.27 -14.961)" fill="#258768"/>
    <path id="Path_15989" data-name="Path 15989" d="M166.89,142.392h13.892a1.517,1.517,0,0,0,0-3.034H166.89a1.517,1.517,0,0,0,0,3.034" transform="translate(-126.709 -106.776)" fill="#258768"/>
    <path id="Path_15990" data-name="Path 15990" d="M1.458,273.2H14.58a1.461,1.461,0,0,0,1.455-1.458V254.716a7.627,7.627,0,0,0-7.6-7.6H1.458A1.46,1.46,0,0,0,0,248.568v23.174A1.461,1.461,0,0,0,1.458,273.2" transform="translate(0 -189.337)" fill="#fdcb37"/>
  </g>
</svg>
