<?xml version="1.0" standalone="no"?>
<!DOCTYPE svg PUBLIC "-//W3C//DTD SVG 20010904//EN"
 "http://www.w3.org/TR/2001/REC-SVG-20010904/DTD/svg10.dtd">
<svg version="1.0" xmlns="http://www.w3.org/2000/svg"
 width="554.000000pt" height="554.000000pt" viewBox="0 0 554.000000 554.000000"
 preserveAspectRatio="xMidYMid meet">

<g transform="translate(0.000000,554.000000) scale(0.100000,-0.100000)"
fill="#000000" stroke="none">
<path d="M2277 3088 c-3 -987 -3 -994 -25 -1073 -49 -179 -140 -298 -282 -367
-83 -41 -71 -49 33 -22 80 20 186 75 227 116 71 70 126 242 140 435 5 70 10
507 10 971 l0 842 90 0 90 0 0 45 0 45 -140 0 -139 0 -4 -992z"/>
<path d="M2969 4068 c0 -7 0 -74 0 -148 1 -93 -3 -143 -12 -160 -17 -33 -62
-39 -91 -11 -20 19 -24 19 -44 5 -29 -20 -28 -35 3 -64 19 -18 40 -25 84 -28
56 -4 61 -3 97 31 l39 35 0 174 0 173 -37 3 c-26 2 -38 -1 -39 -10z"/>
<path d="M3207 3976 c-62 -17 -72 -27 -55 -55 9 -15 19 -20 33 -16 11 4 39 9
62 12 35 5 43 2 52 -16 15 -27 6 -41 -25 -41 -14 0 -47 -9 -74 -21 -56 -24
-76 -59 -66 -114 12 -61 80 -84 149 -49 21 12 32 13 35 5 2 -6 19 -11 38 -11
l34 0 0 118 c0 139 -14 174 -77 191 -46 13 -46 13 -106 -3z m103 -196 c0 -56
-91 -85 -98 -31 -5 30 31 60 71 61 23 0 27 -4 27 -30z"/>
<path d="M3617 3975 c-20 -7 -43 -18 -51 -24 -11 -9 -15 -7 -19 9 -4 15 -13
20 -36 20 l-31 0 0 -155 0 -155 40 0 40 0 0 104 c0 101 1 105 26 125 15 12 34
21 43 21 35 0 41 -21 41 -137 l0 -113 43 0 42 0 -5 135 c-4 118 -8 137 -25
154 -28 26 -64 32 -108 16z"/>
<path d="M3935 3984 c-11 -3 -37 -12 -57 -21 -34 -14 -36 -17 -25 -40 8 -19
16 -23 31 -18 35 12 90 16 103 8 6 -4 13 -17 15 -28 2 -15 -3 -21 -22 -23 -52
-6 -121 -34 -135 -55 -8 -12 -15 -39 -15 -60 0 -75 76 -110 153 -71 21 12 32
13 35 5 2 -6 19 -11 38 -11 l34 0 0 110 c0 117 -13 170 -47 188 -24 13 -83 22
-108 16z m75 -204 c0 -58 -92 -85 -98 -28 -4 31 28 58 70 58 24 0 28 -4 28
-30z"/>
<path d="M1900 3056 c0 -505 -4 -875 -10 -937 -19 -188 -72 -329 -156 -419
l-45 -48 51 -17 c49 -16 52 -16 72 1 65 60 146 259 168 410 6 48 10 384 10
910 l0 834 100 0 100 0 0 50 0 50 -145 0 -145 0 0 -834z"/>
<path d="M4050 3337 c0 -234 4 -247 71 -247 36 0 39 2 39 29 0 16 -6 31 -15
35 -13 4 -15 36 -15 196 l0 190 -40 0 -40 0 0 -203z"/>
<path d="M4222 3336 c3 -184 5 -206 22 -225 13 -14 31 -21 58 -21 32 0 38 3
38 22 0 12 -8 30 -17 40 -21 23 -21 28 -22 231 l-1 157 -41 0 -40 0 3 -204z"/>
<path d="M2894 3509 c-45 -13 -76 -51 -81 -102 -5 -40 -2 -48 28 -79 19 -19
59 -45 89 -58 30 -13 61 -28 68 -33 15 -12 16 -49 0 -65 -19 -19 -89 -14 -128
9 l-34 21 -22 -28 -23 -28 31 -23 c38 -28 83 -37 149 -31 63 6 100 34 115 84
22 80 -8 122 -118 168 -77 32 -95 58 -58 88 27 22 50 23 98 2 36 -14 38 -14
55 8 18 22 18 23 -3 40 -41 33 -107 44 -166 27z"/>
<path d="M3312 3410 c-18 -4 -42 -16 -53 -26 -19 -17 -20 -17 -26 4 -4 16 -13
22 -34 22 l-29 0 0 -155 0 -155 40 0 40 0 0 110 0 109 30 16 c23 12 35 13 50
5 18 -10 20 -21 20 -124 0 -62 2 -115 4 -117 3 -3 22 -3 43 -1 l38 4 -3 99
c-3 94 -2 100 22 124 29 29 48 31 70 9 13 -12 16 -39 16 -127 l0 -112 32 2
c18 1 37 2 41 2 5 1 7 62 5 137 -3 129 -4 137 -27 155 -32 26 -100 25 -135 -2
l-27 -21 -22 20 c-28 26 -54 32 -95 22z"/>
<path d="M3800 3410 c-40 -8 -90 -27 -90 -34 0 -3 5 -16 11 -30 11 -23 13 -23
45 -10 48 20 80 17 98 -8 18 -26 13 -38 -18 -38 -42 0 -117 -32 -133 -57 -59
-89 39 -179 138 -128 25 14 32 14 44 2 8 -8 25 -12 39 -10 26 5 26 6 26 109 0
149 -21 193 -100 207 -14 2 -41 1 -60 -3z m80 -199 c0 -49 -70 -82 -100 -46
-26 32 14 73 73 74 23 1 27 -3 27 -28z"/>
<path d="M3112 2978 c-18 -18 -14 -45 9 -61 40 -29 90 5 71 48 -13 27 -58 35
-80 13z"/>
<path d="M2790 2745 l0 -205 40 0 39 0 3 83 3 82 73 3 72 3 0 29 0 29 -72 3
-73 3 -3 52 -3 52 88 3 88 3 3 33 3 32 -130 0 -131 0 0 -205z"/>
<path d="M3392 2840 c-39 -24 -52 -25 -52 -5 0 10 -11 15 -35 15 l-35 0 0
-154 c0 -168 0 -168 58 -158 21 4 22 8 22 107 0 100 1 104 26 124 29 23 51 26
74 11 14 -9 17 -48 20 -227 0 -8 15 -13 40 -13 l40 0 0 116 c0 129 -13 173
-56 193 -36 16 -65 14 -102 -9z"/>
<path d="M3699 2851 c-14 -5 -35 -13 -47 -20 -19 -10 -20 -15 -10 -37 9 -20
16 -24 32 -18 12 3 40 9 63 11 35 4 43 1 53 -16 15 -30 8 -37 -47 -45 -93 -13
-142 -75 -113 -145 21 -52 99 -68 151 -30 25 18 30 18 35 5 4 -10 18 -16 35
-16 l29 0 0 118 c0 99 -3 122 -20 150 -29 48 -90 64 -161 43z m101 -196 c0
-56 -66 -87 -94 -42 -15 24 2 49 45 64 48 17 49 17 49 -22z"/>
<path d="M4090 2840 c-43 -23 -50 -24 -50 -5 0 10 -11 15 -35 15 l-35 0 0
-155 0 -155 40 0 40 0 0 110 0 110 36 17 c60 29 69 16 72 -121 l3 -116 39 0
40 0 0 131 0 131 -29 29 c-35 34 -70 37 -121 9z"/>
<path d="M4400 2838 c-25 -13 -53 -37 -64 -56 -22 -39 -25 -125 -7 -170 28
-67 128 -100 204 -68 l38 15 -16 31 c-15 29 -16 30 -44 15 -60 -31 -111 13
-111 96 0 60 37 94 94 86 35 -5 44 -3 55 15 31 50 -72 76 -149 36z"/>
<path d="M4675 2837 c-51 -29 -75 -76 -75 -148 0 -122 111 -192 225 -145 39
16 41 22 21 49 -12 15 -18 16 -35 8 -33 -18 -76 -13 -105 14 -49 45 -37 55 69
55 l95 0 0 48 c0 59 -16 90 -59 119 -43 29 -85 29 -136 0z m103 -53 c35 -24
28 -50 -15 -57 -45 -8 -83 1 -83 18 0 18 41 50 70 54 3 1 16 -6 28 -15z"/>
<path d="M3110 2695 l0 -155 40 0 40 0 0 155 0 155 -40 0 -40 0 0 -155z"/>
<path d="M3870 2205 l0 -225 40 0 c40 0 40 0 40 38 0 22 9 47 20 62 23 29 23
28 72 -54 26 -44 30 -46 73 -46 l45 0 -38 58 c-21 31 -48 72 -60 91 l-20 35
50 60 51 61 -42 3 c-36 3 -45 -1 -64 -25 -12 -15 -36 -44 -54 -63 l-32 -35 -1
133 0 132 -40 0 -40 0 0 -225z"/>
<path d="M686 2404 c-23 -22 -21 -81 3 -94 29 -15 77 -12 91 5 18 22 15 62 -5
85 -22 24 -68 26 -89 4z"/>
<path d="M1099 2410 c-25 -15 -32 -58 -14 -86 31 -48 115 -21 115 38 0 43 -61
71 -101 48z"/>
<path d="M2798 2394 c-5 -4 -8 -99 -8 -212 l0 -204 118 4 c129 4 152 12 177
64 24 51 19 91 -15 126 -30 29 -38 48 -21 48 19 0 34 61 25 98 -14 55 -55 74
-173 80 -53 2 -99 1 -103 -4z m186 -80 c41 -40 6 -86 -63 -82 l-46 3 -3 48 -3
47 50 0 c32 0 55 -6 65 -16z m18 -171 c22 -19 23 -52 4 -78 -11 -15 -27 -19
-72 -20 l-59 0 -3 49 c-5 75 0 80 61 72 28 -4 60 -14 69 -23z"/>
<path d="M3226 2293 c-55 -20 -63 -30 -42 -58 12 -17 17 -18 40 -7 51 23 106
10 106 -25 0 -7 -12 -15 -27 -19 -108 -22 -148 -55 -147 -117 2 -76 79 -111
154 -69 25 13 34 14 37 5 3 -7 21 -13 40 -13 l35 0 -4 118 c-4 120 -15 159
-48 180 -34 21 -93 23 -144 5z m114 -193 c0 -53 -77 -81 -104 -37 -9 15 -6 23
17 43 16 14 41 24 58 24 26 0 29 -3 29 -30z"/>
<path d="M3640 2293 c-8 -3 -23 -13 -33 -22 -17 -14 -20 -14 -32 2 -7 10 -25
17 -44 17 l-31 0 0 -156 0 -155 43 3 42 3 3 105 c2 93 5 107 23 123 28 23 66
22 79 -2 5 -11 10 -67 10 -125 l0 -106 40 0 40 0 0 115 c0 124 -13 175 -48
194 -22 12 -66 13 -92 4z"/>
<path d="M1095 2230 c-16 -17 -17 -31 -11 -107 27 -352 247 -590 583 -629 28
-4 91 -3 140 1 l88 8 -80 13 c-99 15 -170 42 -311 119 -127 70 -204 140 -252
232 -41 78 -72 198 -72 280 0 50 -4 67 -20 83 -25 25 -42 25 -65 0z"/>
<path d="M705 2220 c-16 -18 -17 -28 -7 -122 14 -124 50 -236 104 -320 152
-238 399 -344 753 -322 l120 8 -135 12 c-83 7 -160 21 -200 34 -66 22 -194 88
-285 145 -152 97 -247 266 -262 468 -6 91 -18 117 -52 117 -10 0 -26 -9 -36
-20z"/>
</g>
</svg>
